Crispy root-x0y1000t0.ufo
<glyph name="parenleft" format="2">
  <advance width="136"/>
  <unicode hex="0028"/>
  <outline>
    <contour>
      <point x="35" y="0" type="line"/>
      <point x="37" y="0" type="line"/>
      <point x="37" y="1128" type="line"/>
      <point x="63" y="1238" type="line"/>
      <point x="124" y="1238" type="line"/>
      <point x="124" y="1700" type="line"/>
      <point x="75" y="1700" type="line"/>
      <point x="35" y="1240" type="line"/>
    </contour>
  </outline>
</glyph>
<glyph name="three" format="2">
  <advance width="175"/>
  <unicode hex="0033"/>
  <outline>
    <contour>
      <point x="37" y="0" type="line"/>
      <point x="132" y="0" type="line"/>
      <point x="132" y="1026" type="line"/>
      <point x="107" y="1026" type="line"/>
      <point x="120" y="1097" type="line"/>
      <point x="120" y="1600" type="line"/>
      <point x="48" y="1600" type="line"/>
      <point x="48" y="1046" type="line"/>
      <point x="50" y="1046" type="line"/>
      <point x="50" y="1138" type="line"/>
      <point x="118" y="1138" type="line"/>
      <point x="118" y="1097" type="line"/>
      <point x="105" y="1026" type="line"/>
      <point x="70" y="1025" type="line"/>
      <point x="70" y="563" type="line"/>
      <point x="130" y="564" type="line"/>
      <point x="130" y="462" type="line"/>
      <point x="39" y="462" type="line"/>
      <point x="39" y="578" type="line"/>
      <point x="37" y="578" type="line"/>
    </contour>
  </outline>
</glyph>
<glyph name="four" format="2">
  <advance width="153"/>
  <unicode hex="0034"/>
  <outline>
    <contour>
      <point x="107" y="0" type="line"/>
      <point x="109" y="0" type="line"/>
      <point x="109" y="552" type="line"/>
      <point x="137" y="552" type="line"/>
      <point x="137" y="1014" type="line"/>
      <point x="109" y="1014" type="line"/>
      <point x="109" y="1600" type="line"/>
      <point x="107" y="1600" type="line"/>
      <point x="107" y="1014" type="line"/>
      <point x="31" y="1014" type="line"/>
      <point x="31" y="1055" type="line"/>
      <point x="61" y="1600" type="line"/>
      <point x="59" y="1600" type="line"/>
      <point x="29" y="1054" type="line"/>
      <point x="29" y="552" type="line"/>
      <point x="107" y="552" type="line"/>
    </contour>
  </outline>
</glyph>
<glyph name="seven" format="2">
  <advance width="153"/>
  <unicode hex="0037"/>
  <outline>
    <contour>
      <point x="79" y="0" type="line"/>
      <point x="81" y="0" type="line"/>
      <point x="124" y="1078" type="line"/>
      <point x="124" y="1600" type="line"/>
      <point x="29" y="1600" type="line"/>
      <point x="29" y="663" type="line"/>
      <point x="31" y="663" type="line"/>
      <point x="31" y="1138" type="line"/>
      <point x="122" y="1138" type="line"/>
      <point x="122" y="1078" type="line"/>
    </contour>
  </outline>
</glyph>
<glyph name="question" format="2">
  <advance width="166"/>
  <unicode hex="003F"/>
  <outline>
    <contour>
      <point x="71" y="629" type="line"/>
      <point x="83" y="629" type="line"/>
      <point x="134" y="841" type="line"/>
      <point x="134" y="1600" type="line"/>
      <point x="47" y="1600" type="line"/>
      <point x="47" y="1148" type="line"/>
      <point x="49" y="1148" type="line"/>
      <point x="49" y="1236" type="line"/>
      <point x="132" y="1236" type="line"/>
      <point x="132" y="842" type="line"/>
      <point x="123" y="809" type="line"/>
      <point x="71" y="809" type="line"/>
    </contour>
    <contour>
      <point x="81" y="0" type="line"/>
      <point x="83" y="0" type="line"/>
      <point x="83" y="526" type="line"/>
      <point x="81" y="526" type="line"/>
    </contour>
  </outline>
</glyph>
<glyph name="C" format="2">
  <advance width="162"/>
  <unicode hex="0043"/>
  <outline>
    <contour>
      <point x="35" y="0" type="line"/>
      <point x="130" y="0" type="line"/>
      <point x="130" y="686" type="line"/>
      <point x="128" y="686" type="line"/>
      <point x="128" y="462" type="line"/>
      <point x="37" y="462" type="line"/>
      <point x="37" y="1087" type="line"/>
      <point x="39" y="1128" type="line"/>
      <point x="125" y="1128" type="line"/>
      <point x="125" y="864" type="line"/>
      <point x="127" y="866" type="line"/>
      <point x="127" y="1600" type="line"/>
      <point x="78" y="1600" type="line"/>
      <point x="35" y="1087" type="line"/>
    </contour>
  </outline>
</glyph>
<glyph name="E" format="2">
  <advance width="151"/>
  <unicode hex="0045"/>
  <outline>
    <contour>
      <point x="47" y="0" type="line"/>
      <point x="116" y="0" type="line"/>
      <point x="116" y="462" type="line"/>
      <point x="49" y="462" type="line"/>
      <point x="49" y="570" type="line"/>
      <point x="105" y="570" type="line"/>
      <point x="105" y="1032" type="line"/>
      <point x="49" y="1032" type="line"/>
      <point x="49" y="1138" type="line"/>
      <point x="115" y="1138" type="line"/>
      <point x="115" y="1600" type="line"/>
      <point x="47" y="1600" type="line"/>
    </contour>
  </outline>
</glyph>
<glyph name="K" format="2">
  <advance width="181"/>
  <unicode hex="004B"/>
  <outline>
    <contour>
      <point x="49" y="0" type="line"/>
      <point x="49" y="569" type="line"/>
      <point x="150" y="569" type="line"/>
      <point x="150" y="0" type="line"/>
      <point x="152" y="0" type="line"/>
      <point x="152" y="1031" type="line"/>
      <point x="86" y="1031" type="line"/>
      <point x="140" y="1599" type="line"/>
      <point x="138" y="1600" type="line"/>
      <point x="84" y="1031" type="line"/>
      <point x="49" y="1031" type="line"/>
      <point x="49" y="1600" type="line"/>
      <point x="47" y="1600" type="line"/>
      <point x="47" y="0" type="line"/>
    </contour>
  </outline>
</glyph>
<glyph name="R" format="2">
  <advance width="166"/>
  <unicode hex="0052"/>
  <outline>
    <contour>
      <point x="155" y="-1" type="line"/>
      <point x="157" y="0" type="line"/>
      <point x="96" y="581" type="line"/>
      <point x="94" y="581" type="line"/>
    </contour>
    <contour>
      <point x="47" y="0" type="line"/>
      <point x="49" y="0" type="line"/>
      <point x="49" y="502" type="line"/>
      <point x="109" y="502" type="line"/>
      <point x="139" y="965" type="line"/>
      <point x="139" y="1600" type="line"/>
      <point x="47" y="1600" type="line"/>
    </contour>
    <contour>
      <point x="49" y="966" type="line"/>
      <point x="49" y="1138" type="line"/>
      <point x="137" y="1138" type="line"/>
      <point x="137" y="1023" type="line"/>
      <point x="118" y="966" type="line"/>
    </contour>
  </outline>
</glyph>
<glyph name="Y" format="2">
  <advance width="136"/>
  <unicode hex="0059"/>
  <outline>
    <contour>
      <point x="34" y="505" type="line" smooth="yes"/>
      <point x="92" y="505" type="line"/>
      <point x="78" y="1" type="line"/>
      <point x="80" y="0" type="line"/>
      <point x="121" y="1600" type="line" smooth="yes"/>
      <point x="119" y="1600" type="line" smooth="yes"/>
      <point x="103" y="967" type="line"/>
      <point x="29" y="967" type="line" smooth="yes"/>
      <point x="17" y="1600" type="line"/>
      <point x="15" y="1599" type="line" smooth="yes"/>
    </contour>
  </outline>
</glyph>
<glyph name="d" format="2">
  <advance width="160"/>
  <unicode hex="0064"/>
  <outline>
    <contour>
      <point x="31" y="0" type="line"/>
      <point x="95" y="0" type="line"/>
      <point x="129" y="163" type="line"/>
      <point x="129" y="1700" type="line"/>
      <point x="127" y="1700" type="line"/>
      <point x="127" y="1200" type="line"/>
      <point x="65" y="1200" type="line"/>
      <point x="31" y="1038" type="line"/>
    </contour>
    <contour>
      <point x="33" y="402" type="line"/>
      <point x="33" y="637" type="line"/>
      <point x="67" y="798" type="line"/>
      <point x="127" y="798" type="line"/>
      <point x="127" y="563" type="line"/>
      <point x="93" y="402" type="line"/>
    </contour>
  </outline>
</glyph>
<glyph name="h" format="2">
  <advance width="145"/>
  <unicode hex="0068"/>
  <outline>
    <contour>
      <point x="112" y="0" type="line"/>
      <point x="112" y="798" type="line"/>
      <point x="30" y="798" type="line"/>
      <point x="30" y="800" type="line"/>
      <point x="84" y="1200" type="line"/>
      <point x="114" y="1200" type="line"/>
      <point x="114" y="0" type="line"/>
    </contour>
    <contour>
      <point x="29" y="0" type="line"/>
      <point x="29" y="1700" type="line"/>
      <point x="31" y="1700" type="line"/>
      <point x="31" y="0" type="line"/>
    </contour>
  </outline>
</glyph>
<glyph name="q" format="2">
  <advance width="155"/>
  <unicode hex="0071"/>
  <outline>
    <contour>
      <point x="22" y="0" type="line"/>
      <point x="58" y="0" type="line"/>
      <point x="117" y="389" type="line"/>
      <point x="117" y="-300" type="line"/>
      <point x="119" y="-300" type="line"/>
      <point x="119" y="1200" type="line"/>
      <point x="92" y="1200" type="line"/>
      <point x="22" y="826" type="line"/>
    </contour>
    <contour>
      <point x="24" y="402" type="line"/>
      <point x="24" y="625" type="line"/>
      <point x="94" y="798" type="line"/>
      <point x="117" y="798" type="line"/>
      <point x="117" y="402" type="line"/>
    </contour>
  </outline>
</glyph>
<glyph name="r" format="2">
  <advance width="102"/>
  <unicode hex="0072"/>
  <outline>
    <contour>
      <point x="103" y="798" type="line"/>
      <point x="56" y="798" type="line"/>
      <point x="22" y="737" type="line"/>
      <point x="22" y="0" type="line"/>
      <point x="20" y="0" type="line"/>
      <point x="20" y="1038" type="line"/>
      <point x="54" y="1200" type="line"/>
      <point x="103" y="1200" type="line"/>
    </contour>
  </outline>
</glyph>
<glyph name="s" format="2">
  <advance width="120"/>
  <unicode hex="0073"/>
  <outline>
    <contour>
      <point x="20" y="0" type="line"/>
      <point x="67" y="0" type="line"/>
      <point x="101" y="163" type="line"/>
      <point x="101" y="771" type="line"/>
      <point x="21" y="771" type="line"/>
      <point x="21" y="738" type="line"/>
      <point x="35" y="798" type="line"/>
      <point x="101" y="798" type="line"/>
      <point x="101" y="1200" type="line"/>
      <point x="53" y="1200" type="line"/>
      <point x="19" y="1039" type="line"/>
      <point x="19" y="449" type="line"/>
      <point x="99" y="449" type="line"/>
      <point x="99" y="464" type="line"/>
      <point x="65" y="402" type="line"/>
      <point x="20" y="402" type="line"/>
    </contour>
  </outline>
</glyph>
<glyph name="Eth" format="2">
  <advance width="174"/>
  <unicode hex="00D0"/>
  <outline>
    <contour>
      <point x="4" y="604" type="line"/>
      <point x="84" y="604" type="line"/>
      <point x="84" y="1006" type="line"/>
      <point x="4" y="1006" type="line"/>
    </contour>
    <component base="D"/>
  </outline>
</glyph>
<glyph name="horizontalbar" format="2">
  <advance width="367"/>
  <unicode hex="2015"/>
  <outline>
    <contour>
      <point x="10" y="569" type="line"/>
      <point x="357" y="569" type="line"/>
      <point x="357" y="1031" type="line"/>
      <point x="10" y="1031" type="line"/>
    </contour>
  </outline>
</glyph>
<glyph name="quoteleft" format="2">
  <advance width="52"/>
  <unicode hex="2018"/>
  <outline>
    <contour>
      <point x="32" y="1600" type="line"/>
      <point x="30" y="1600" type="line"/>
      <point x="20" y="1118" type="line"/>
      <point x="22" y="1118" type="line"/>
    </contour>
  </outline>
</glyph>
<glyph name="C.wide" format="2">
	<advance width="151"/>
	<outline>
		<contour>
			<point x="35" y="0" type="line"/>
			<point x="131" y="0" type="line"/>
			<point x="131" y="462" type="line"/>
			<point x="37" y="462" type="line"/>
			<point x="37" y="967" type="line"/>
			<point x="48" y="1138" type="line"/>
			<point x="130" y="1138" type="line"/>
			<point x="130" y="1600" type="line"/>
			<point x="79" y="1600" type="line"/>
			<point x="35" y="967" type="line"/>
		</contour>
	</outline>
</glyph>
<glyph name="Z.wide" format="2">
	<advance width="167"/>
	<outline>
		<contour>
			<point x="29" y="0" type="line"/>
			<point x="125" y="0" type="line"/>
			<point x="125" y="462" type="line"/>
			<point x="31" y="462" type="line"/>
			<point x="31" y="591" type="line"/>
			<point x="138" y="1138" type="line"/>
			<point x="138" y="1600" type="line"/>
			<point x="32" y="1600" type="line"/>
			<point x="32" y="1138" type="line"/>
			<point x="132" y="1138" type="line"/>
			<point x="132" y="1120" type="line"/>
			<point x="29" y="594" type="line"/>
		</contour>
	</outline>
</glyph>
<glyph name="eight.smol" format="2">
  <advance width="103"/>
  <outline>
    <contour>
      <point x="18" y="0" type="line"/>
      <point x="85" y="0" type="line"/>
      <point x="85" y="469" type="line"/>
      <point x="70" y="497" type="line"/>
      <point x="70" y="498" type="line"/>
      <point x="83" y="498" type="line"/>
      <point x="83" y="995" type="line"/>
      <point x="20" y="995" type="line"/>
      <point x="20" y="524" type="line"/>
      <point x="35" y="498" type="line"/>
      <point x="35" y="497" type="line"/>
      <point x="18" y="497" type="line"/>
    </contour>
    <contour>
      <point x="20" y="287" type="line"/>
      <point x="20" y="354" type="line"/>
      <point x="55" y="354" type="line"/>
      <point x="83" y="313" type="line"/>
      <point x="83" y="287" type="line"/>
    </contour>
    <contour>
      <point x="48" y="641" type="line"/>
      <point x="22" y="681" type="line"/>
      <point x="22" y="708" type="line"/>
      <point x="81" y="708" type="line"/>
      <point x="81" y="641" type="line"/>
    </contour>
  </outline>
</glyph>
<glyph name="four.smol" format="2">
  <advance width="95"/>
  <outline>
    <contour>
      <point x="67" y="0" type="line"/>
      <point x="69" y="0" type="line"/>
      <point x="69" y="343" type="line"/>
      <point x="85" y="343" type="line"/>
      <point x="85" y="631" type="line"/>
      <point x="69" y="631" type="line"/>
      <point x="69" y="995" type="line"/>
      <point x="67" y="995" type="line"/>
      <point x="67" y="631" type="line"/>
      <point x="20" y="631" type="line"/>
      <point x="20" y="656" type="line"/>
      <point x="39" y="995" type="line"/>
      <point x="37" y="995" type="line"/>
      <point x="18" y="656" type="line"/>
      <point x="18" y="343" type="line"/>
      <point x="67" y="343" type="line"/>
    </contour>
  </outline>
</glyph>
<glyph name="six.smol" format="2">
  <advance width="103"/>
  <outline>
    <contour>
      <point x="22" y="0" type="line"/>
      <point x="81" y="0" type="line"/>
      <point x="81" y="610" type="line"/>
      <point x="24" y="610" type="line"/>
      <point x="24" y="681" type="line"/>
      <point x="26" y="708" type="line"/>
      <point x="75" y="708" type="line"/>
      <point x="75" y="659" type="line"/>
      <point x="77" y="659" type="line"/>
      <point x="77" y="995" type="line"/>
      <point x="42" y="995" type="line"/>
      <point x="22" y="681" type="line"/>
    </contour>
    <contour>
      <point x="79" y="323" type="line"/>
      <point x="79" y="287" type="line"/>
      <point x="24" y="287" type="line"/>
      <point x="24" y="323" type="line"/>
    </contour>
  </outline>
</glyph>
